#!OML:ASF G:\JayActor3\Patient Classification 1\Patient 1\Session 6\male.ASF
:FULLY-SPECIFIED
:DEGREES
1402
root 2.96538 15.7551 -22.9835 539.783 -40.8435 -546.737
lowerback -4.31136 4.52093 2.00313
upperback -4.77082 5.5586 -5.95169
thorax -1.73877 2.49916 -7.13456
lowerneck 0.628909 -6.53859 -11.4125
upperneck 0.911224 -8.9864 10.7279
head 1.17452 -4.52871 4.91506
rclavicle -4.29375e-014 -4.13472e-014
rhumerus 38.394 2.49401 -76.0596
rradius 144.797
rwrist -25.565
rhand 22.4984 -40.3312
rfingers 7.12502
rthumb 46.855 -63.061
lclavicle -4.29375e-014 -4.13472e-014
lhumerus -53.6007 39.6159 44.2183
lradius 25.7628
lwrist 25.7699
lhand -16.99 10.4258
lfingers 7.12502
lthumb 9.24495 40.2031
rfemur -24.2594 -6.20232 9.32876
rtibia 54.1145
rfoot -23.85 -14.817
rtoes -2.31826
lfemur 0.567708 27.7964 -23.9633
ltibia 29.2701
lfoot -24.1356 -10.466
ltoes -0.275147
1403
root 2.964 15.7554 -22.9828 539.806 -40.8905 -546.742
lowerback -4.29295 4.52682 2.04923
upperback -4.77795 5.56652 -5.94313
thorax -1.75195 2.50217 -7.15312
lowerneck 0.619125 -6.55724 -11.4144
upperneck 0.66344 -8.98919 10.6517
head 1.10035 -4.52834 4.89634
rclavicle -6.32135e-014 6.36111e-015
rhumerus 38.7996 2.32214 -75.8361
rradius 144.722
rwrist -25.6721
rhand 22.4823 -40.3229
rfingers 7.12502
rthumb 46.8401 -63.0592
lclavicle -6.32135e-014 6.36111e-015
lhumerus -53.4799 39.6291 44.319
lradius 25.8349
lwrist 25.8324
lhand -16.9841 10.4061
lfingers 7.12502
lthumb 9.25071 40.1831
rfemur -24.2581 -6.23427 9.31658
rtibia 54.1073
rfoot -23.8648 -14.8197
rtoes -2.30152
lfemur 0.552118 27.8253 -23.9617
ltibia 29.2694
lfoot -24.1268 -10.557
ltoes -0.227232
1404
root 2.96275 15.7556 -22.9821 539.828 -40.9394 -546.746
lowerback -4.26659 4.53286 2.09354
upperback -4.79052 5.57421 -5.93417
thorax -1.77547 2.50461 -7.17121
lowerneck 0.614175 -6.57536 -11.4184
upperneck 0.416305 -8.99277 10.5792
head 1.02589 -4.52852 4.87928
rclavicle 1.42727e-013 -9.54166e-015
rhumerus 39.2005 2.14654 -75.6123
rradius 144.647
rwrist -25.7868
rhand 22.466 -40.3179
rfingers 7.12502
rthumb 46.8251 -63.0608
lclavicle 1.42727e-013 -9.54166e-015
lhumerus -53.3735 39.6572 44.3927
lradius 25.8917
lwrist 25.8612
lhand -16.9735 10.4113
lfingers 7.12502
lthumb 9.26095 40.1879
rfemur -24.2565 -6.26549 9.30618
rtibia 54.1004
rfoot -23.8763 -14.8299
rtoes -2.29783
lfemur 0.536578 27.8511 -23.9593
ltibia 29.2684
lfoot -24.1145 -10.6499
ltoes -0.169595
1405
root 2.96163 15.756 -22.9815 539.848 -40.9915 -546.748
lowerback -4.23487 4.53842 2.13681
upperback -4.80728 5.58101 -5.9242
thorax -1.80667 2.50627 -7.18837
lowerneck 0.607588 -6.59372 -11.4198
upperneck 0.172388 -8.99732 10.502
head 0.952372 -4.5291 4.86035
rclavicle 8.50798e-014 -7.23576e-014
rhumerus 39.5979 1.96869 -75.3883
rradius 144.57
rwrist -25.9058
rhand 22.444 -40.3119
rfingers 7.12502
rthumb 46.8047 -63.0637
lclavicle 8.50798e-014 -7.23576e-014
lhumerus -53.281 39.7016 44.4399
lradius 25.9347
lwrist 25.8597
lhand -16.9567 10.4313
lfingers 7.12502
lthumb 9.27715 40.2072
rfemur -24.2548 -6.2967 9.29908
rtibia 54.0931
rfoot -23.886 -14.8473
rtoes -2.31262
lfemur 0.519226 27.8714 -23.9558
ltibia 29.2679
lfoot -24.1011 -10.7401
ltoes -0.109852
1406
root 2.96049 15.7562 -22.981 539.869 -41.0483 -546.755
lowerback -4.19657 4.54106 2.17292
upperback -4.82554 5.58385 -5.91425
thorax -1.8443 2.50583 -7.20234
lowerneck 0.600586 -6.61181 -11.4166
upperneck -0.0724374 -9.00193 10.4176
head 0.878071 -4.52964 4.83865
rclavicle -3.4191e-014 -8.74653e-015
rhumerus 39.9938 1.79229 -75.1677
rradius 144.495
rwrist -26.028
rhand 22.4262 -40.3072
rfingers 7.12502
rthumb 46.7882 -63.0662
lclavicle -3.4191e-014 -8.74653e-015
lhumerus -53.2023 39.7556 44.469
lradius 25.969
lwrist 25.8412
lhand -16.9404 10.4567
lfingers 7.12502
lthumb 9.29286 40.2318
rfemur -24.2473 -6.3315 9.28634
rtibia 54.086
rfoot -23.8956 -14.8665
rtoes -2.33294
lfemur 0.506679 27.8909 -23.954
ltibia 29.2679
lfoot -24.0872 -10.8358
ltoes -0.042248
1407
root 2.95942 15.7566 -22.9805 539.889 -41.1071 -546.758
lowerback -4.15704 4.5426 2.20995
upperback -4.84665 5.58514 -5.9018
thorax -1.88597 2.50443 -7.21452
lowerneck 0.591124 -6.62791 -11.409
upperneck -0.317613 -9.00416 10.3257
head 0.803197 -4.52885 4.81409
rclavicle 6.40087e-014 -3.57812e-014
rhumerus 40.3861 1.62081 -74.9483
rradius 144.419
rwrist -26.1467
rhand 22.4056 -40.3
rfingers 7.12502
rthumb 46.7691 -63.0673
lclavicle 6.40087e-014 -3.57812e-014
lhumerus -53.1399 39.8276 44.4725
lradius 25.9907
lwrist 25.7932
lhand -16.9192 10.4859
lfingers 7.12502
lthumb 9.31327 40.2602
rfemur -24.2412 -6.36573 9.27924
rtibia 54.0777
rfoot -23.9049 -14.8893
rtoes -2.35379
lfemur 0.489674 27.9043 -23.9502
ltibia 29.2691
lfoot -24.0735 -10.9276
ltoes 0.0242535
1408
root 2.95841 15.7571 -22.9801 539.906 -41.167 -546.755
lowerback -4.11889 4.54351 2.24937
upperback -4.86693 5.58575 -5.88859
thorax -1.92596 2.50272 -7.22714
lowerneck 0.577166 -6.64254 -11.3925
upperneck -0.565213 -9.00438 10.224
head 0.727206 -4.52687 4.78526
rclavicle 5.32743e-014 1.98785e-014
rhumerus 40.7796 1.45147 -74.7329
rradius 144.347
rwrist -26.2537
rhand 22.3851 -40.2855
rfingers 7.12502
rthumb 46.7502 -63.061
lclavicle 5.32743e-014 1.98785e-014
lhumerus -53.0739 39.881 44.4963
lradius 26.0162
lwrist 25.7675
lhand -16.9053 10.4575
lfingers 7.12502
lthumb 9.32676 40.2311
rfemur -24.2354 -6.40163 9.27702
rtibia 54.0677
rfoot -23.9113 -14.9185
rtoes -2.38502
lfemur 0.47075 27.9139 -23.9439
ltibia 29.271
lfoot -24.0589 -11.0181
ltoes 0.0989461
1409
root 2.95739 15.7578 -22.9797 539.922 -41.228 -546.748
lowerback -4.08219 4.54425 2.29209
upperback -4.88699 5.58627 -5.8743
thorax -1.96475 2.50095 -7.24035
lowerneck 0.558879 -6.65579 -11.3691
upperneck -0.814805 -9.00289 10.1142
head 0.650396 -4.52387 4.75297
rclavicle 6.79844e-014 1.82882e-014
rhumerus 41.1688 1.28352 -74.5208
rradius 144.278
rwrist -26.3496
rhand 22.3663 -40.2668
rfingers 7.12502
rthumb 46.7328 -63.0498
lclavicle 6.79844e-014 1.82882e-014
lhumerus -53.0019 39.9084 44.5479
lradius 26.0535
lwrist 25.769
lhand -16.9002 10.4292
lfingers 7.12502
lthumb 9.33162 40.2026
rfemur -24.2294 -6.4377 9.27961
rtibia 54.0557
rfoot -23.919 -14.9475
rtoes -2.40947
lfemur 0.449618 27.9216 -23.9342
ltibia 29.2745
lfoot -24.0437 -11.1074
ltoes 0.169165
1410
root 2.95635 15.7585 -22.9793 539.936 -41.2896 -546.74
lowerback -4.04688 4.54587 2.33575
upperback -4.90568 5.58805 -5.86142
thorax -2.00093 2.49985 -7.25537
lowerneck 0.541473 -6.66803 -11.3367
upperneck -1.0685 -9.00073 9.99757
head 0.571383 -4.52052 4.71751
rclavicle 7.7526e-014 3.18055e-015
rhumerus 41.5548 1.11049 -74.3146
rradius 144.212
rwrist -26.4344
rhand 22.3534 -40.2373
rfingers 7.12502
rthumb 46.7208 -63.0255
lclavicle 7.7526e-014 3.18055e-015
lhumerus -52.9132 39.8897 44.6475
lradius 26.1127
lwrist 25.8182
lhand -16.8981 10.4101
lfingers 7.12502
lthumb 9.33371 40.1835
rfemur -24.2214 -6.47364 9.28278
rtibia 54.042
rfoot -23.9253 -14.9807
rtoes -2.43995
lfemur 0.429605 27.9324 -23.9224
ltibia 29.2787
lfoot -24.0292 -11.201
ltoes 0.238797
1411
root 2.95525 15.7592 -22.9791 539.946 -41.3517 -546.728
lowerback -4.01297 4.54901 2.38297
upperback -4.92297 5.59201 -5.84892
thorax -2.03421 2.49989 -7.27251
lowerneck 0.528847 -6.68003 -11.301
upperneck -1.32909 -8.99937 9.87916
head 0.489357 -4.51765 4.68142
rclavicle 5.68524e-014 -7.15625e-015
rhumerus 41.9359 0.93071 -74.1113
rradius 144.147
rwrist -26.5085
rhand 22.3324 -40.1933
rfingers 7.12502
rthumb 46.7014 -62.9899
lclavicle 5.68524e-014 -7.15625e-015
lhumerus -52.8162 39.8479 44.7717
lradius 26.1825
lwrist 25.8877
lhand -16.8952 10.4148
lfingers 7.12502
lthumb 9.33643 40.1881
rfemur -24.2098 -6.50687 9.28837
rtibia 54.0267
rfoot -23.9367 -15.0094
rtoes -2.4535
lfemur 0.41196 27.9471 -23.9054
ltibia 29.2837
lfoot -24.0165 -11.2959
ltoes 0.297438
1412
root 2.95418 15.7599 -22.9788 539.954 -41.4136 -546.714
lowerback -3.97903 4.55306 2.43039
upperback -4.94091 5.59723 -5.83562
thorax -2.06807 2.50052 -7.28892
lowerneck 0.527769 -6.69118 -11.266
upperneck -1.59867 -8.99865 9.76123
head 0.402884 -4.51531 4.64635
rclavicle -1.02573e-013 -4.05521e-014
rhumerus 42.3098 0.744501 -73.9108
rradius 144.081
rwrist -26.5778
rhand 22.307 -40.1464
rfingers 7.12502
rthumb 46.6778 -62.9532
lclavicle -1.02573e-013 -4.05521e-014
lhumerus -52.716 39.7767 44.9229
lradius 26.266
lwrist 25.9826
lhand -16.8993 10.4391
lfingers 7.12502
lthumb 9.33253 40.2125
rfemur -24.1957 -6.53317 9.29567
rtibia 54.0106
rfoot -23.9571 -15.0346
rtoes -2.44243
lfemur 0.395778 27.9644 -23.885
ltibia 29.2894
lfoot -24.004 -11.3917
ltoes 0.341148
1413
root 2.95319 15.7605 -22.9787 539.961 -41.4764 -546.699
lowerback -3.94605 4.55739 2.47664
upperback -4.95971 5.60284 -5.82165
thorax -2.10242 2.50131 -7.30389
lowerneck 0.53515 -6.70186 -11.2322
upperneck -1.87574 -8.9989 9.64505
head 0.313023 -4.51359 4.6126
rclavicle 3.33958e-014 1.35174e-014
rhumerus 42.6775 0.554364 -73.713
rradius 144.016
rwrist -26.6428
rhand 22.273 -40.1042
rfingers 7.12502
rthumb 46.6463 -62.9247
lclavicle 3.33958e-014 1.35174e-014
lhumerus -52.6234 39.7025 45.0721
lradius 26.35
lwrist 26.0775
lhand -16.9037 10.4727
lfingers 7.12502
lthumb 9.32827 40.2463
rfemur -24.1812 -6.55186 9.30509
rtibia 53.9944
rfoot -23.9796 -15.0665
rtoes -2.44233
lfemur 0.378565 27.982 -23.8631
ltibia 29.2962
lfoot -23.9941 -11.4847
ltoes 0.37014
1414
root 2.95218 15.7611 -22.9786 539.969 -41.5409 -546.686
lowerback -3.91341 4.5604 2.51825
upperback -4.97899 5.60669 -5.80706
thorax -2.13781 2.50124 -7.31568
lowerneck 0.554415 -6.71167 -11.2024
upperneck -2.16092 -8.99999 9.53422
head 0.219323 -4.51249 4.58187
rclavicle -8.98507e-014 7.15625e-015
rhumerus 43.0374 0.367198 -73.5193
rradius 143.95
rwrist -26.7028
rhand 22.2264 -40.0577
rfingers 7.12502
rthumb 46.6032 -62.8968
lclavicle -8.98507e-014 7.15625e-015
lhumerus -52.5425 39.6276 45.2155
lradius 26.4339
lwrist 26.1719
lhand -16.9153 10.5065
lfingers 7.12502
lthumb 9.31704 40.2807
rfemur -24.1639 -6.56474 9.31248
rtibia 53.9791
rfoot -24.0084 -15.0973
rtoes -2.42847
lfemur 0.363117 28.0017 -23.8405
ltibia 29.3046
lfoot -23.9852 -11.5807
ltoes 0.396586
1415
root 2.95115 15.7615 -22.9787 539.978 -41.6067 -546.676
lowerback -3.87986 4.56183 2.55305
upperback -5.00273 5.60815 -5.79102
thorax -2.17948 2.49973 -7.32251
lowerneck 0.581612 -6.72061 -11.1756
upperneck -2.44594 -9.00181 9.42668
head 0.124705 -4.51187 4.55303
rclavicle 7.55382e-015 -3.33958e-014
rhumerus 43.3815 0.186915 -73.3309
rradius 143.885
rwrist -26.7618
rhand 22.1782 -40.0221
rfingers 7.12502
rthumb 46.5586 -62.8803
lclavicle 7.55382e-015 -3.33958e-014
lhumerus -52.491 39.5806 45.3153
lradius 26.4992
lwrist 26.2309
lhand -16.9208 10.528
lfingers 7.12502
lthumb 9.31176 40.3024
rfemur -24.1469 -6.57376 9.31882
rtibia 53.9652
rfoot -24.038 -15.136
rtoes -2.42626
lfemur 0.346995 28.0215 -23.8186
ltibia 29.3144
lfoot -23.9757 -11.6815
ltoes 0.436117
